<svg xmlns="http://www.w3.org/2000/svg" viewBox="0 12.399999618530273 270.4800109863281 50.87999725341797" data-asc="0.9716796875"><defs/><g><g><g transform="translate(0, 0)"><path d="M25.85 40.58Q26.76 40.14 28.38 39.49Q30.00 38.84 30.44 38.84Q30.76 38.84 30.76 39.18Q30.76 39.53 30.59 39.89Q30.42 40.26 30.24 40.53Q30.05 40.80 29.76 41.19L29.39 41.67Q28.22 43.33 26.03 44.43Q25.27 44.82 23.84 45.46Q22.41 46.09 21.85 46.39L20.56 48.34Q16.43 54.44 13.66 57.50Q10.89 60.55 8.53 61.91Q6.18 63.28 3.05 63.28Q1.54 63.28 0.77 61.98Q0 60.67 0 59.05Q0 57.42 1.01 55.69Q2.03 53.96 3.81 52.38Q5.59 50.81 7.54 49.40Q9.50 48.00 11.87 46.68Q15.70 44.60 19.31 42.94Q28.20 29.86 37.35 17.58Q37.55 17.38 37.55 17.29Q37.55 17.19 36.82 17.19Q36.08 17.19 33.54 17.68Q28.00 18.80 22.53 21.74Q17.07 24.68 13.16 28.48Q9.25 32.28 9.25 34.64Q9.25 35.84 10.28 36.61Q11.30 37.38 12.49 37.38Q13.67 37.38 14.93 36.78Q16.19 36.18 17.02 35.58Q17.85 34.99 17.97 34.99Q18.09 34.99 18.09 35.33Q18.09 37.11 17.15 38.39Q16.21 39.67 14.55 40.31Q12.89 40.94 11.36 40.94Q9.84 40.94 8.25 40.31Q6.67 39.67 5.55 38.33Q4.44 36.99 4.44 35.28Q4.44 34.55 4.76 33.54Q7.18 25.68 20.56 18.38Q25.15 15.89 30.82 14.37Q36.50 12.84 41.55 12.84Q42.48 12.84 43.16 13.43Q43.85 14.01 43.85 14.67Q43.85 15.33 43.75 15.60Q43.65 15.87 42.87 16.99Q42.09 18.12 41.28 19.17Q39.06 22.05 37.50 24.12Q35.94 26.20 25.85 40.58M15.50 48.73Q3.49 56.18 3.49 58.69Q3.49 59.23 4.33 59.23Q5.18 59.23 6.54 58.37Q7.91 57.52 9.12 56.37Q10.33 55.22 11.69 53.61Q13.67 51.27 15.50 48.73ZM70.58 35.08Q71.24 35.08 71.24 36.82Q71.24 38.55 71.02 39.14Q70.29 41.02 67.61 43.35Q64.94 45.68 61.76 47.30Q58.57 48.93 56.52 48.93Q55.54 48.93 54.87 48.17Q54.20 47.41 54.20 46.19Q54.20 44.02 56.69 39.55Q59.18 35.08 62.72 30.22Q56.84 37.06 54.38 39.45Q51.93 41.85 50 43.54Q48.07 45.24 46.53 46.26Q42.87 48.68 40.72 48.68Q38.57 48.68 37.67 47.50Q36.77 46.31 36.77 44.87Q36.77 40.65 41.71 33.00Q46.66 25.34 50.81 20.48Q47.29 23.58 45.96 23.58Q44.63 23.58 43.97 22.77Q43.31 21.95 43.31 20.91Q43.31 19.87 44.29 18.96Q45.26 18.04 45.72 18.04Q46.17 18.04 46.17 18.12Q46.17 18.19 45.80 18.64Q45.43 19.09 45.43 19.26Q45.43 19.43 45.75 19.43Q46.70 19.43 49.90 17.50Q53.10 15.58 55.37 13.75Q55.98 13.23 56.77 13.23Q57.57 13.23 58.30 13.62Q58.35 13.50 58.72 13.67Q59.08 13.84 59.45 14.21Q59.81 14.58 59.81 14.89Q59.81 15.21 59.62 15.48Q49.46 28.61 46.85 32.59Q41.55 40.67 41.55 43.09Q41.55 43.95 42.27 43.95Q42.99 43.95 46.34 41.21Q55.52 33.74 72.07 14.84Q72.73 14.09 73.32 14.14L73.54 14.14Q73.63 14.14 74.08 14.05Q74.54 13.96 75.56 13.96Q78.00 13.96 78.00 14.87Q78.00 15.26 77.28 16.24Q76.56 17.21 74.29 20.43Q72.02 23.66 68.64 28.61Q65.26 33.57 62.81 37.72Q60.35 41.87 60.35 42.99Q60.35 43.02 60.44 43.02Q60.52 43.02 61.21 42.68Q63.31 41.58 66.13 39.18Q68.95 36.79 69.69 35.94Q70.43 35.08 70.58 35.08ZM75.76 41.87L75.44 42.53Q75.44 43.24 77.43 43.88Q79.42 44.53 81.80 44.53Q84.18 44.53 87.04 43.82Q89.89 43.12 92.00 42.09Q94.12 41.06 95.50 39.94Q96.88 38.82 96.88 37.99Q96.88 36.94 94.43 36.04Q91.99 35.13 87.34 34.05Q82.69 32.96 80.53 31.30Q78.37 29.64 78.37 27.26Q78.37 24.88 80.08 22.71Q81.79 20.53 84.53 18.85Q87.28 17.16 90.53 15.84Q97.24 13.13 102.98 13.13Q105.18 13.13 106.86 13.53Q110.08 14.28 110.08 15.53Q110.08 16.77 109.86 17.22Q109.64 17.68 109.51 17.82Q109.38 17.97 109.17 18.12Q108.96 18.26 108.86 18.33Q107.79 19.24 102.98 19.46Q101.32 19.53 101.17 19.63Q101.03 19.73 100.92 19.73Q100.81 19.73 100.66 19.53Q100.51 19.34 100.51 18.90Q100.51 18.46 101.46 17.29Q98.49 17.46 95.10 18.65Q91.72 19.85 89.23 21.35Q86.74 22.85 85.08 24.30Q83.42 25.76 83.42 26.35Q83.42 26.95 83.79 27.34Q84.81 28.44 89.48 29.64Q94.31 30.88 95.92 31.64Q97.53 32.40 98.60 33.08Q99.66 33.76 100.29 34.47Q101.78 36.18 101.78 37.94Q101.78 39.70 100.84 41.24Q99.90 42.77 98.01 44.21Q96.12 45.65 93.55 46.78Q87.94 49.29 80.18 49.29Q74.51 49.29 72.95 46.29Q72.53 45.53 72.53 44.71Q72.53 43.90 72.91 43.24Q73.29 42.58 73.83 42.24Q74.88 41.58 75.32 41.58Q75.76 41.58 75.76 41.87ZM115.53 40.82L115.41 41.33Q115.41 41.48 115.54 41.60Q115.67 41.72 115.87 41.72Q116.06 41.72 116.19 41.53Q119.82 36.69 122.22 33.02Q124.61 29.35 125.72 27.61Q126.83 25.88 127.49 24.85Q129.25 22.17 130.98 20.04Q124.39 21.70 120.65 21.70Q116.92 21.70 115.28 21.23Q113.65 20.75 113.13 20.15Q112.62 19.56 112.62 18.93Q112.62 18.31 112.67 17.72Q112.77 16.50 114.15 15.72Q115.53 14.94 116.43 14.94Q117.33 14.94 117.33 15.21Q117.33 15.48 116.93 15.93Q116.53 16.38 116.53 16.55Q116.53 17.33 122.17 17.33Q127.81 17.33 135.13 15.84Q139.33 12.43 142.38 12.43Q144.41 12.43 145.07 13.57Q145.51 14.26 145.51 14.94Q145.51 15.63 144.71 16.31Q143.92 16.99 142.58 17.48Q140.14 18.36 136.82 18.87Q135.42 20.65 132.87 24.41Q130.32 28.17 129.39 29.49Q128.47 30.81 126.40 34.18Q124.34 37.55 122.83 40.00Q121.31 42.46 119.60 44.85Q116.11 49.78 113.38 49.78Q112.23 49.78 111.40 49.17Q110.57 48.56 110.57 47.18Q110.57 45.80 112.10 43.74Q113.62 41.67 114.33 41.09Q115.04 40.50 115.28 40.50Q115.53 40.50 115.53 40.82ZM180.10 39.58L180.30 40.50Q180.30 41.09 179.69 41.89Q178.08 43.99 174.52 46.72Q170.97 49.44 169.29 49.44Q167.60 49.44 166.65 48.45Q165.70 47.46 165.70 46.19Q165.70 44.68 168.87 39.50Q173.63 31.81 181.03 21.53Q179.47 23.14 172.73 30.22Q157.81 45.85 155.30 47.92Q154.88 48.27 154.09 48.27Q153.30 48.27 152.42 47.62Q151.54 46.97 151.54 46.17L151.54 46.04Q151.64 45.02 156.25 36.01Q160.86 27.00 163.99 21.68Q159.38 26.76 154.66 33.01Q145.70 44.87 141.55 53.22Q141.19 54.00 140.65 54.00Q140.11 54.00 139.09 53.74Q136.94 53.15 136.94 51.68Q136.94 50.81 140.53 45.40Q144.12 39.99 148.85 33.58Q153.59 27.17 158.67 21.24Q165.67 13.04 167.68 13.04Q167.99 13.04 168.29 13.20Q168.58 13.35 168.65 13.35Q168.73 13.35 168.80 13.28Q169.12 12.89 170.06 12.89Q171.00 12.89 171.89 13.26Q172.78 13.62 172.78 14.09Q172.78 14.38 170.34 18.75Q162.16 33.25 159.35 38.67Q162.04 35.42 167.03 30.05Q172.02 24.68 177.51 19.34Q184.67 12.40 186.06 12.40Q186.62 12.40 187.48 12.65Q188.99 13.09 190.38 13.09Q190.77 13.16 191.05 13.42Q191.33 13.67 191.33 13.94Q191.33 14.21 191.19 14.38Q183.25 24.93 177.81 32.98Q172.36 41.04 171.09 43.87Q173.66 43.33 178.74 37.74Q178.96 37.45 179.05 37.35Q179.15 37.26 179.22 37.16Q179.64 36.67 179.86 37.77Q179.96 38.40 179.99 38.66Q180.03 38.92 180.07 39.20Q180.10 39.48 180.10 39.58ZM202.05 40.92Q202.51 40.92 202.61 41.63Q202.71 42.33 202.71 43.09Q202.71 43.85 202.56 44.14Q201.86 45.51 199.46 47.47Q197.07 49.44 194.92 49.44Q193.60 49.44 192.48 48.65Q191.36 47.85 191.36 45.87Q191.36 43.90 192.41 41.99Q186.35 49.58 182.91 49.58Q181.54 49.58 180.70 48.61Q179.86 47.63 179.86 46.59Q179.86 45.56 180.15 44.45Q180.44 43.33 180.77 42.46Q181.10 41.58 181.75 40.28Q182.40 38.99 182.71 38.40Q183.03 37.82 183.73 36.63Q184.42 35.45 185.56 33.45Q186.69 31.45 187.44 30.48Q188.18 29.52 188.89 29.50Q189.60 29.49 190.14 30.08Q190.67 30.66 190.67 31.03Q190.67 31.40 189.04 34.33Q184.20 43.07 184.20 44.51Q184.20 44.87 184.47 44.87Q185.64 44.87 190.31 39.79Q194.97 34.72 195.70 33.29Q196.44 31.86 197.13 30.88Q197.83 29.91 198.17 29.69Q199.22 29.00 200.88 28.96Q201.15 28.96 201.29 28.98Q201.44 29.00 201.64 29.39Q201.83 29.79 201.83 30.00Q201.61 30.69 199.89 33.64Q198.17 36.60 197.97 36.99Q195.09 42.94 195.09 44.75Q195.09 45.78 195.87 45.78Q197.29 45.58 199.29 43.51Q200.02 42.75 200.74 41.97Q201.46 41.19 201.64 41.05Q201.81 40.92 202.05 40.92ZM203.83 43.70L203.81 44.09Q203.81 44.70 204.27 45.14Q204.74 45.58 205.13 45.58Q208.06 45.58 210.31 44.70Q212.57 43.82 212.57 42.94Q212.57 42.53 211.76 42.22Q210.94 41.92 209.00 41.47Q207.06 41.02 206.18 40.76Q205.30 40.50 204.79 40.28Q204.27 40.06 203.74 39.67Q202.59 38.87 202.59 37.27Q202.59 35.67 203.77 34.09Q204.96 32.52 206.74 31.40Q208.52 30.27 210.57 29.42Q214.62 27.73 217.38 27.73Q220.09 27.73 220.73 28.91Q220.92 29.32 220.92 29.83L220.92 30.00Q220.92 31.30 220.37 32.03Q219.82 32.76 218.64 33.35Q217.46 33.94 216.76 33.94Q216.06 33.94 215.88 33.84Q215.70 33.74 215.58 33.58Q215.45 33.42 215.27 33.35Q215.09 33.28 215.09 32.98Q215.09 32.69 215.33 32.39Q215.58 32.08 215.67 31.74Q214.06 31.81 212.30 32.48Q210.55 33.15 209.29 33.98Q208.03 34.81 207.20 35.57Q206.37 36.33 206.37 36.68Q206.37 37.04 207.50 37.26Q212.55 38.26 214.14 38.99Q215.72 39.72 216.33 40.65Q216.94 41.58 216.94 42.33Q216.94 43.90 215.70 45.29Q214.45 46.68 212.62 47.56Q208.69 49.49 205.77 49.49Q202.86 49.49 201.75 48.60Q200.63 47.71 200.63 46.48Q200.63 45.26 201.26 44.23Q201.88 43.19 202.86 43.19Q203.83 43.19 203.83 43.70ZM235.42 21.78Q235.42 23.17 234.13 24.57Q232.84 25.98 231.43 25.98Q230.03 25.98 230.03 24.51Q230.03 23.05 231.26 21.72Q232.50 20.39 233.98 20.39Q234.64 20.39 235.03 20.75Q235.42 21.12 235.42 21.78M231.47 43.09Q231.47 43.82 231.32 44.14Q230.13 46.58 227.51 48.08Q224.90 49.58 222.97 49.58Q221.04 49.58 219.65 48.29Q218.26 47.00 218.26 45.65Q218.26 44.31 219.60 41.75Q220.95 39.18 222.29 37.01Q223.63 34.84 223.63 34.66Q223.63 34.47 223.13 33.94Q222.63 33.40 222.63 33.14Q222.63 32.89 223.65 31.80Q224.66 30.71 226.11 29.65Q227.56 28.59 228.33 28.59Q229.10 28.59 229.71 29.27Q230.32 29.96 230.32 30.52Q230.32 31.08 224.51 41.09Q224.44 41.24 224.11 41.74Q223.78 42.24 223.60 42.57Q223.41 42.90 223.17 43.36Q222.68 44.34 222.68 45.00Q222.68 45.83 223.80 45.83Q224.93 45.83 226.14 45.06Q227.34 44.29 228.22 43.36Q230.52 40.89 230.83 40.89Q231.47 40.89 231.47 43.09ZM245.54 43.16Q245.54 43.16 246.17 42.76Q246.80 42.36 247.17 42.05Q247.53 41.75 248.02 41.33Q248.51 40.92 248.83 40.92Q249.32 40.92 249.32 42.03Q249.32 43.14 248.23 44.42Q247.14 45.70 245.53 46.59Q243.92 47.49 242.09 48.14Q238.45 49.49 235.90 49.49Q233.35 49.49 231.30 47.81Q229.25 46.14 229.25 43.44Q229.25 40.75 230.59 38.05Q231.93 35.35 234.05 33.31Q236.16 31.27 238.95 30.00Q241.75 28.74 244.48 28.74Q245.80 28.74 246.85 29.49Q247.90 30.25 247.90 31.57Q247.90 32.89 246.59 34.73Q245.29 36.57 243.95 36.57Q242.38 36.57 242.38 35.08Q242.38 34.69 243.12 33.69Q243.85 32.69 243.85 32.34Q243.85 31.98 243.58 31.98Q242.24 31.98 240.70 32.91Q239.16 33.84 237.90 34.86Q236.65 35.89 235.52 37.16Q233.08 39.92 233.08 42.90Q233.08 44.09 233.85 44.96Q234.62 45.83 236.44 45.83Q238.26 45.83 240.09 45.40Q241.92 44.97 243.10 44.47Q244.29 43.97 245.54 43.16ZM266.53 30.03Q268.38 30.03 268.38 31.30Q268.38 31.98 268.07 32.30Q267.75 32.62 266.71 34.41Q265.67 36.21 264.42 39.00Q263.16 41.80 262.79 43.77Q262.72 44.02 262.72 44.46Q262.72 45.80 263.45 45.80Q264.18 45.80 265.19 45.10Q266.19 44.41 266.97 43.62Q267.75 42.82 268.49 41.99Q269.24 41.16 269.38 41.04Q269.53 40.92 269.82 40.92Q270.29 40.92 270.39 41.63Q270.48 42.33 270.48 43.09Q270.48 43.85 270.34 44.14Q269.63 45.53 267.22 47.49Q264.82 49.44 262.85 49.44Q260.89 49.44 259.96 48.24Q259.03 47.05 259.03 45.59Q259.03 44.14 259.52 43.04Q257.50 45.68 254.87 47.51Q252.25 49.34 250.59 49.34Q248.93 49.34 247.88 48.34Q246.53 47.09 246.53 44.89Q246.53 42.68 247.52 40.44Q248.51 38.21 250.12 36.36Q251.73 34.52 253.66 33.01Q257.71 29.83 261.13 29.83Q262.45 29.83 263.28 30.27Q264.11 30.71 264.33 31.37Q264.92 30.49 265.32 30.26Q265.72 30.03 266.53 30.03M263.28 32.74Q259.11 32.74 254.64 37.38Q253.05 39.04 251.72 41.36Q250.39 43.68 250.39 44.53Q250.39 45.39 250.88 45.39Q251.56 45.39 254.69 42.69Q257.81 39.99 258.84 38.72Q259.96 37.30 263.28 32.74Z"/></g></g></g></svg>